<?xml version="1.0" encoding="UTF-8" standalone="no"?>
<!-- Created with Inkscape (http://www.inkscape.org/) -->

<svg
   width="75"
   height="32"
   viewBox="0 0 75 32"
   version="1.1"
   id="svg1"
   xml:space="preserve"
   inkscape:export-filename="logo.svg"
   inkscape:export-xdpi="76"
   inkscape:export-ydpi="76"
   xmlns:inkscape="http://www.inkscape.org/namespaces/inkscape"
   xmlns:sodipodi="http://sodipodi.sourceforge.net/DTD/sodipodi-0.dtd"
   xmlns="http://www.w3.org/2000/svg"
   xmlns:svg="http://www.w3.org/2000/svg"><sodipodi:namedview
     id="namedview1"
     pagecolor="#ffffff"
     bordercolor="#000000"
     borderopacity="0.25"
     inkscape:showpageshadow="2"
     inkscape:pageopacity="0.0"
     inkscape:pagecheckerboard="0"
     inkscape:deskcolor="#d1d1d1"
     inkscape:document-units="px" /><defs
     id="defs1" /><g
     inkscape:label="Layer 1"
     inkscape:groupmode="layer"
     id="layer1"><path
       style="fill:#ffffff;stroke-width:0.302761"
       d="m 14.532522,18.942957 c 0,-3.483382 0.02439,-3.620137 0.681211,-3.819652 0.374667,-0.113807 1.145742,-0.555233 1.713501,-0.980945 l 1.032288,-0.774021 -0.199696,1.45694 c -0.109833,0.801317 -0.199696,2.86847 -0.199696,4.593673 v 3.136732 h -1.513804 -1.513804 z"
       id="path24" /><rect
       style="fill:#000000;stroke-width:1.00552"
       id="rect36"
       width="75.016518"
       height="32.12117"
       x="0"
       y="0" /><g
       id="g24"
       transform="matrix(1.3965569,0,0,1.3965569,-18.515025,-6.8120063)"><path
         style="fill:#ffffff;stroke-width:0.302761"
         d="m 14.533,18.942957 c 0,-3.483382 0.02439,-3.620138 0.681211,-3.819653 0.374667,-0.113806 1.145743,-0.555232 1.713502,-0.980943 l 1.032288,-0.774022 -0.199697,1.45694 c -0.109834,0.801317 -0.199695,2.86847 -0.199695,4.593673 v 3.136731 H 16.046803 14.533 Z"
         id="path13" /><path
         style="fill:#ffffff;stroke-width:0.302761"
         d="m 62.315337,18.024233 c -0.109963,-5.110634 -0.296346,-5.580762 -2.212502,-5.580762 -0.585194,0 -1.063988,-0.04288 -1.063988,-0.09528 0,-0.0524 0.442788,-0.365251 0.983973,-0.695219 1.392263,-0.84888 2.641666,-0.761136 4.08878,0.287149 l 1.227714,0.889351 0.21564,2.588729 c 0.290748,3.490398 0.08155,6.497724 -0.476558,6.850811 -0.241161,0.152569 -0.939567,0.279483 -1.552014,0.282033 l -1.113541,0.0046 z"
         id="path14" /><path
         style="fill:#ffffff;stroke-width:0.302761"
         d="m 49.407522,21.543664 c -0.87779,-0.733373 -1.137039,-1.129342 -0.941564,-1.438115 0.148362,-0.234352 0.271833,-1.754457 0.274383,-3.378012 0.0025,-1.623555 0.0691,-2.951918 0.147917,-2.951918 0.07881,0 0.760017,0.299633 1.513805,0.665852 l 1.370523,0.665852 v 3.724181 c 0,3.460697 -0.04081,3.724179 -0.576876,3.724179 -0.317283,0 -1.121967,-0.455408 -1.788188,-1.012019 z"
         id="path15" /><path
         style="fill:#ffffff;stroke-width:0.302761"
         d="m 30.864405,22.286589 c -2.294275,-0.749463 -3.009926,-1.830978 -3.009926,-4.548686 0,-3.163041 1.54285,-6.078292 3.840295,-7.256324 3.095222,-1.587097 6.845381,2.185931 6.845381,6.887128 0,3.655634 -1.162709,4.914015 -4.686158,5.071753 -1.218254,0.05454 -2.563571,-0.0147 -2.989592,-0.153871 z m 5.20461,-4.278382 c 1.404085,-0.390005 2.170497,-1.761389 1.714846,-3.06847 -0.786353,-2.255732 -3.945821,-3.498084 -6.457079,-2.539026 -2.995687,1.144063 -3.771334,4.598936 -1.259638,5.610654 0.916722,0.369259 4.668221,0.367285 6.001871,-0.0032 z"
         id="path16" /><path
         style="fill:#ffffff;stroke-width:0.302761"
         d="m 54.497434,18.922555 c 0,-2.848145 0.08831,-3.633131 0.408715,-3.633131 0.224793,0 0.994996,-0.424699 1.711562,-0.943776 l 1.302843,-0.943776 -0.195124,1.624988 c -0.107318,0.893743 -0.196309,2.95335 -0.197756,4.576905 l -0.0026,2.951918 h -1.513836 -1.513804 z"
         id="path17" /><path
         style="fill:#ffffff;stroke-width:0.302761"
         d="m 49.407522,21.543664 c -0.87779,-0.733373 -1.137039,-1.129342 -0.941564,-1.438115 0.148362,-0.234352 0.271833,-1.754457 0.274383,-3.378012 0.0025,-1.623555 0.0691,-2.951918 0.147917,-2.951918 0.07881,0 0.760017,0.299633 1.513805,0.665852 l 1.370523,0.665852 v 3.724181 c 0,3.460697 -0.04081,3.724179 -0.576876,3.724179 -0.317283,0 -1.121967,-0.455408 -1.788188,-1.012019 z"
         id="path18" /><path
         style="fill:#ffffff;stroke-width:0.302761"
         d="m 43.1439,22.269467 c -0.333037,-0.13631 -0.878005,-0.550281 -1.211042,-0.919936 -0.539685,-0.599026 -0.616051,-1.177773 -0.702363,-5.322973 l -0.09684,-4.650872 0.853743,-0.180693 c 0.46956,-0.09938 1.076453,-0.223744 1.348653,-0.276361 0.433334,-0.08377 0.522075,0.483939 0.713238,4.562866 0.211005,4.502217 0.244023,4.678746 0.984035,5.260839 0.421137,0.331267 1.122,0.606837 1.557468,0.612377 l 0.791763,0.01007 -0.714755,0.595449 c -0.743565,0.619454 -2.408901,0.765592 -3.523899,0.309232 z"
         id="path19" /><path
         style="fill:#ffffff;stroke-width:0.302761"
         d="m 30.864405,22.286589 c -2.294275,-0.749463 -3.009926,-1.830978 -3.009926,-4.548686 0,-3.163041 1.54285,-6.078292 3.840295,-7.256324 3.095222,-1.587097 6.845381,2.185931 6.845381,6.887128 0,3.655634 -1.162709,4.914015 -4.686158,5.071753 -1.218254,0.05454 -2.563571,-0.0147 -2.989592,-0.153871 z m 6.214318,-4.868482 c 0.965643,-0.907175 1.010681,-2.342581 0.109447,-3.488313 -0.69881,-0.888395 -2.725958,-1.954155 -3.732616,-1.962402 -3.124321,-0.0256 -5.870458,3.001329 -4.550522,5.015805 0.737974,1.126292 1.530097,1.339552 4.616251,1.242813 2.455529,-0.07697 2.882649,-0.17397 3.55744,-0.807903 z"
         id="path20" /><path
         style="fill:#ffffff;stroke-width:0.302761"
         d="m 30.864405,22.286589 c -2.505691,-0.818527 -3.137353,-1.924907 -2.945435,-5.159041 0.185842,-3.131739 1.452665,-5.420823 3.629294,-6.557947 3.227948,-1.6863603 6.991891,1.973799 6.991891,6.799106 0,3.655634 -1.162709,4.914015 -4.686158,5.071753 -1.218254,0.05454 -2.563571,-0.0147 -2.989592,-0.153871 z m 6.214318,-4.868482 c 0.965643,-0.907175 1.010681,-2.342581 0.109447,-3.488313 -0.69881,-0.888395 -2.725958,-1.954155 -3.732616,-1.962402 -3.088182,-0.0253 -5.855189,3.024632 -4.550522,5.015805 0.737974,1.126292 1.530097,1.339552 4.616251,1.242813 2.455529,-0.07697 2.882649,-0.17397 3.55744,-0.807903 z"
         id="path21" /><path
         style="fill:#ffffff;stroke-width:0.302761"
         d="m 22.404782,18.48266 c 0,-2.340207 -0.14301,-4.3869 -0.336146,-4.810789 -0.343694,-0.754326 -1.405271,-1.402116 -2.327257,-1.420129 -0.420931,-0.0082 -0.384366,-0.119389 0.199166,-0.605521 0.870305,-0.725036 2.173654,-0.761748 3.567171,-0.100482 1.686745,0.800412 1.924675,1.616913 1.924675,6.604877 v 4.405067 h -1.513805 -1.513804 z"
         id="path22" /><path
         style="fill:#ffffff;stroke-width:0.302761"
         d="m 14.533,18.942957 c 0,-3.299513 0.05051,-3.628762 0.582631,-3.79765 0.320446,-0.101705 1.089577,-0.528942 1.709178,-0.949414 l 1.126549,-0.764496 -0.195375,1.425411 c -0.107456,0.783977 -0.195374,2.836941 -0.195374,4.562144 v 3.136731 H 16.046803 14.533 Z"
         id="path23" /></g></g></svg>
