<?xml version="1.0" encoding="UTF-8" standalone="no"?>
<!-- Created with Inkscape (http://www.inkscape.org/) -->

<svg
   width="75"
   height="33"
   viewBox="0 0 75 33"
   version="1.1"
   id="svg1"
   xml:space="preserve"
   xmlns:inkscape="http://www.inkscape.org/namespaces/inkscape"
   xmlns:sodipodi="http://sodipodi.sourceforge.net/DTD/sodipodi-0.dtd"
   xmlns="http://www.w3.org/2000/svg"
   xmlns:svg="http://www.w3.org/2000/svg"><sodipodi:namedview
     id="namedview1"
     pagecolor="#ffffff"
     bordercolor="#000000"
     borderopacity="0.25"
     inkscape:showpageshadow="2"
     inkscape:pageopacity="0.0"
     inkscape:pagecheckerboard="0"
     inkscape:deskcolor="#d1d1d1"
     inkscape:document-units="px" /><defs
     id="defs1" /><g
     inkscape:label="Layer 1"
     inkscape:groupmode="layer"
     id="layer1"><path
       style="fill:#000000"
       d="M 0.0935316,16.402436 V 0.2003248 H 37.898457 75.703382 V 16.402436 32.604547 H 37.898457 0.0935316 Z m 17.7023074,1.990718 c 0,-3.906099 0.05829,-4.384207 0.621855,-5.100665 0.859994,-1.093306 2.396881,-1.093306 3.256876,0 0.563803,0.71676 0.621855,1.194383 0.621855,5.116344 v 4.325784 l 1.575205,-0.09069 1.575205,-0.09069 0.08247,-4.693734 c 0.08132,-4.628717 0.07205,-4.706119 -0.669953,-5.587933 -0.917209,-1.09004 -2.759101,-1.633029 -4.194779,-1.236619 -0.560538,0.154772 -1.630653,0.92422 -2.426876,1.745005 -0.783325,0.807489 -1.94579,1.703353 -2.583256,1.99081 l -1.159029,0.52265 v 3.70492 3.704921 h 1.650215 1.650215 z m 18.521341,3.847748 c 1.670335,-0.682705 2.300014,-1.730091 2.430714,-4.043165 0.135532,-2.39858 -0.258183,-3.953119 -1.461185,-5.769321 -1.125486,-1.699173 -3.125934,-2.794423 -4.574715,-2.504666 -2.846812,0.569362 -5.043307,3.83305 -5.101037,7.579436 -0.03772,2.447951 0.585036,3.762321 2.186445,4.614637 1.343839,0.71523 4.906449,0.782485 6.519778,0.123079 z m -6.069719,-4.304615 c -1.176124,-0.515207 -1.735524,-1.435101 -1.532102,-2.519433 0.336726,-1.794903 2.391671,-3.264971 4.563965,-3.264971 1.603362,0 3.021254,0.768045 3.943026,2.135863 0.858633,1.274125 0.851454,1.877376 -0.0346,2.907477 -0.668603,0.777298 -0.877469,0.831512 -3.525459,0.91509 -1.548113,0.04886 -3.084785,-0.02945 -3.414828,-0.174026 z m 17.122031,3.809217 1.090822,-0.957754 0.494824,0.622598 c 0.607034,0.763781 1.599617,1.29291 2.425353,1.29291 0.59467,0 0.619804,-0.158549 0.619804,-3.909925 0,-3.464483 -0.05982,-3.927638 -0.525069,-4.065402 -0.288788,-0.08551 -1.031384,-0.422851 -1.650215,-0.74964 l -1.125146,-0.594164 v 3.118907 c 0,2.700996 -0.08332,3.224836 -0.621856,3.909466 -0.812912,1.033452 -2.140072,1.056302 -3.142271,0.0541 -0.717144,-0.717143 -0.73646,-0.855752 -0.73646,-5.284751 v -4.548293 l -1.425185,0.213303 c -0.783853,0.117316 -1.526449,0.275633 -1.650215,0.351814 -0.123767,0.07618 -0.22503,2.095003 -0.22503,4.486271 0,4.785718 0.254172,5.748403 1.728997,6.548633 0.451734,0.245109 1.457971,0.451059 2.236081,0.457666 1.172429,0.01 1.601581,-0.152032 2.505566,-0.945739 z m 10.384939,-3.570025 c 0.09262,-4.340049 0.125994,-4.551532 0.804953,-5.100665 0.918639,-0.742983 2.284192,-0.730777 3.042161,0.02719 0.546738,0.546738 0.600079,1.000131 0.600079,5.100665 v 4.500587 h 1.463457 c 0.908887,0 1.599572,-0.164009 1.822652,-0.432804 0.253052,-0.304909 0.330405,-1.717948 0.261768,-4.781819 l -0.09743,-4.349016 -0.885827,-0.923709 c -1.966536,-2.050635 -4.267867,-1.805661 -6.717901,0.715113 -0.876681,0.901994 -2.056064,1.792495 -2.620852,1.978891 l -1.026886,0.338903 v 3.72722 3.727221 h 1.628599 1.628598 z"
       id="path12" /></g></svg>
